<svg width="24" height="25" viewBox="0 0 24 25" fill="none" xmlns="http://www.w3.org/2000/svg">
<path d="M6.29702 25C4.60861 25 3.02576 24.3501 1.83982 23.17C0.65387 21.9899 0 20.416 0 18.7366C0 17.0577 0.653393 15.4833 1.83982 14.3036L14.8761 1.33688C16.7413 -0.517345 19.6395 -0.434207 21.6174 1.53309C23.5952 3.50038 23.6802 6.38268 21.8151 8.23833L9.56829 20.4198C8.41864 21.5633 6.54634 21.5652 5.39479 20.4198C4.24419 19.2748 4.24466 17.4125 5.39479 16.2686L13.6907 8.01694C13.9706 7.73855 14.4238 7.73855 14.7037 8.01694C14.9836 8.29534 14.9836 8.74618 14.7037 9.02458L6.40783 17.2762C5.81605 17.8648 5.81605 18.823 6.40783 19.4121C7.00057 20.0008 7.96346 19.9998 8.55524 19.4121L20.8021 7.23069C22.0893 5.94988 22.0047 3.93365 20.6043 2.54073C19.2039 1.1478 17.1769 1.06371 15.8892 2.34452L2.85286 15.3113C1.93725 16.222 1.43288 17.4387 1.43288 18.7366C1.43288 20.035 1.93725 21.2516 2.85286 22.1624C3.76847 23.0731 4.99167 23.5748 6.29702 23.5748C7.6019 23.5748 8.8251 23.0731 9.74071 22.1624L22.777 9.19561C23.0569 8.91721 23.5102 8.91721 23.7901 9.19561C24.07 9.474 24.07 9.92485 23.7901 10.2032L10.7538 23.17C9.56781 24.3496 7.98495 25 6.29702 25Z" fill="url(#paint0_linear)"/>
<defs>
<linearGradient id="paint0_linear" x2="1" gradientUnits="userSpaceOnUse" gradientTransform="translate(12) scale(24 25) rotate(90)">
<stop stop-color="#F5515F"/>
<stop offset="1" stop-color="#9F041B"/>
</linearGradient>
</defs>
</svg>
