<svg width="38" height="38" viewBox="0 0 38 38" fill="none" xmlns="http://www.w3.org/2000/svg">
<path d="M2.27041 0H16.5404C16.5404 0.57 16.6304 1.14 16.6504 1.71C16.7104 3.21 16.7304 4.71 16.8304 6.2C16.9648 9.15341 17.4174 12.0837 18.1804 14.94C18.7073 16.9745 18.9695 19.0684 18.9604 21.17C18.9604 21.38 18.9604 21.6 18.9604 21.85H0.140415C0.097101 21.7675 0.0635416 21.6803 0.0404148 21.59C-0.101638 19.2679 0.131347 16.938 0.730415 14.69C1.3815 12.4427 1.76746 10.127 1.88041 7.79C2.00041 5.4 2.12041 3 2.23041 0.61C2.24041 0.43 2.25041 0.25 2.27041 0Z" transform="translate(0.959595 15.41)" fill="url(#paint0_linear)"/>
<path fill-rule="evenodd" clip-rule="evenodd" d="M11.82 4.65002L18.74 0.039978C18.92 0.48999 18.98 21.51 18.82 22.46H2.37C2.31573 21.8917 2.27161 21.3233 2.22766 20.7562C2.13391 19.5474 2.04059 18.3444 1.84998 17.16C1.65137 15.9257 1.35211 14.6964 1.05927 13.4935L1.05688 13.4837C0.937744 12.9943 0.819702 12.5093 0.710022 12.03C0.763367 11.9423 0.821167 11.8677 0.872742 11.8011L0.873962 11.7996C0.957031 11.6924 1.02386 11.6062 1.03003 11.52V8.39001L0.340027 8.28998C0.340027 8.14154 0.306763 7.9931 0.273499 7.84467L0.273193 7.8432C0.246033 7.72211 0.218933 7.60107 0.210022 7.47998L0.205566 7.40295C0.127014 6.04895 0.0490723 4.70428 0 3.34998C0.00268555 3.15619 0.0904541 2.97333 0.23999 2.84998C1.64001 1.91998 3.04999 1.01001 4.46997 0.0999756H4.65002V4.71002L8.19 2.35999L11.73 0C11.8066 0.925415 11.8033 1.81958 11.8 2.72546V2.73254C11.7977 3.36121 11.7955 3.99554 11.82 4.65002ZM4.75 8.38V11.72H8.10999V8.37L4.75 8.38ZM15.19 11.72H11.84V8.38H15.19V11.72ZM4.75 15.47V18.81H8.10999V15.46L4.75 15.47ZM11.84 18.81V15.47L15.2 15.46V18.81H11.84Z" transform="translate(18.72 14.79)" fill="url(#paint1_linear)"/>
<path d="M14.2952 0V3H0.0652273C-0.0217424 2.00189 -0.0217424 0.998109 0.0652273 0L14.2952 0Z" transform="translate(3.20477 11.23)" fill="url(#paint2_linear)"/>
<path fill-rule="evenodd" clip-rule="evenodd" d="M3.68036 8.61731C3.78522 7.83514 4.45117 7.25031 5.24036 7.24731V7.2973C4.90826 7.77545 4.73352 8.34521 4.74036 8.92731C4.78027 9.24213 5.04803 9.47809 5.36536 9.47809C5.68268 9.47809 5.95044 9.24213 5.99036 8.92731V8.80731C6.04803 8.00433 6.67035 7.35681 7.47034 7.26733C7.96509 7.21228 8.46259 7.18561 8.96033 7.18732C9.70697 7.17334 10.3674 6.69989 10.6204 5.99731C10.9061 5.36053 10.771 4.61365 10.2803 4.11731C9.86462 3.67139 9.26813 3.43939 8.66034 3.4873H4.34033C4.00037 3.4873 3.75037 3.33728 3.72034 2.99731C3.69037 2.65729 3.89032 2.44733 4.34033 2.44733C4.70905 2.42883 5.07635 2.38873 5.44037 2.32733C6.28033 2.18384 7.01306 1.67456 7.44037 0.937317C7.5307 0.802551 7.56049 0.636108 7.52246 0.478394C7.4845 0.320679 7.38214 0.186096 7.24036 0.1073C6.97894 -0.0704346 6.62567 -0.0230103 6.42035 0.217285L6.34033 0.307312C5.95868 0.867554 5.30615 1.18042 4.63037 1.12732H2.23035C1.93066 1.12317 1.63165 1.15674 1.34033 1.22729C0.662292 1.39215 0.149658 1.94812 0.0403442 2.63733C-0.109741 3.32062 0.166565 4.02704 0.740356 4.42731C1.12421 4.68945 1.58746 4.80963 2.05035 4.76733H8.34033C8.5791 4.77051 8.81689 4.7973 9.05035 4.84729C9.30237 4.8786 9.48389 5.10443 9.46033 5.3573C9.46857 5.48999 9.42358 5.62042 9.33539 5.71991C9.24719 5.81934 9.12305 5.87958 8.99036 5.88733C8.83069 5.90149 8.67004 5.90149 8.51038 5.88733H5.57037C4.8515 5.86438 4.14624 6.08649 3.57037 6.51733C2.87476 7.01886 2.42706 7.79413 2.34033 8.64728C2.30292 8.84473 2.34967 9.04877 2.4693 9.21021C2.58893 9.37164 2.77057 9.47571 2.97034 9.49731C3.32037 9.55731 3.58032 9.31732 3.68036 8.8573V8.61731ZM2.34033 2.47729V3.47729C2.26215 3.47491 2.18054 3.48212 2.0979 3.48938C1.83167 3.51276 1.55402 3.53723 1.34033 3.24731C1.2561 3.07361 1.2561 2.87091 1.34033 2.69727C1.53284 2.4046 1.80841 2.43225 2.08936 2.46045C2.17322 2.46881 2.25757 2.47729 2.34033 2.47729Z" transform="translate(2.65967 0.00268555)" fill="url(#paint3_linear)"/>
<defs>
<linearGradient id="paint0_linear" x2="1" gradientUnits="userSpaceOnUse" gradientTransform="translate(9.48032) scale(18.9606 21.85) rotate(90)">
<stop stop-color="#F5515F"/>
<stop offset="1" stop-color="#9F041B"/>
</linearGradient>
<linearGradient id="paint1_linear" x2="1" gradientUnits="userSpaceOnUse" gradientTransform="translate(9.4564) scale(18.9128 22.46) rotate(90)">
<stop stop-color="#F5515F"/>
<stop offset="1" stop-color="#9F041B"/>
</linearGradient>
<linearGradient id="paint2_linear" x2="1" gradientUnits="userSpaceOnUse" gradientTransform="translate(7.14761) scale(14.2952 3) rotate(90)">
<stop stop-color="#F5515F"/>
<stop offset="1" stop-color="#9F041B"/>
</linearGradient>
<linearGradient id="paint3_linear" x2="1" gradientUnits="userSpaceOnUse" gradientTransform="translate(5.38426) scale(10.7685 9.50639) rotate(90)">
<stop stop-color="#F5515F"/>
<stop offset="1" stop-color="#9F041B"/>
</linearGradient>
</defs>
</svg>
