<svg width="23" height="19" viewBox="0 0 23 19" fill="none" xmlns="http://www.w3.org/2000/svg">
<path d="M13.7997 2.48388L11.7741 0.324608C11.5777 0.115282 11.3167 0 11.0389 0H2.4594C2.27723 0 2.12954 0.157428 2.12954 0.351612C2.12954 0.545796 2.27723 0.703224 2.4594 0.703224H11.0389C11.1404 0.703224 11.2358 0.745324 11.3076 0.821834L13.3333 2.98111C13.3351 2.98308 13.3406 2.98894 13.3406 3C13.3406 3.01106 13.3351 3.01697 13.3333 3.01889L11.3076 5.17812C11.2358 5.25463 11.1404 5.29678 11.0389 5.29678H0.684793C0.670983 5.29678 0.659723 5.28477 0.659723 5.27005V0.729946C0.659723 0.715226 0.670939 0.703224 0.684793 0.703224H1.03972C1.2219 0.703224 1.36959 0.545796 1.36959 0.351612C1.36959 0.157428 1.2219 0 1.03972 0H0.684793C0.307167 0 0 0.327468 0 0.729946V5.27005C0 5.67253 0.307167 6 0.684793 6H11.0389C11.3166 6 11.5777 5.88472 11.7741 5.67539L13.7997 3.51617C14.0668 3.2316 14.0668 2.7685 13.7997 2.48388Z" fill="#B20933"/>
<path d="M17.8026 2.48386L15.8057 0.324606C15.6121 0.115281 15.3547 0 15.0809 0H2.42456C2.24498 0 2.09939 0.157427 2.09939 0.351609C2.09939 0.545791 2.24498 0.703218 2.42456 0.703218H15.0809C15.181 0.703218 15.275 0.745318 15.3458 0.821828L17.3426 2.98104C17.3523 2.99149 17.3523 3.00846 17.3426 3.01887L15.3457 5.17813C15.275 5.25464 15.1809 5.29673 15.0808 5.29673H0.675067C0.661453 5.29673 0.650354 5.28473 0.650354 5.27001V0.729941C0.650354 0.71522 0.661453 0.703218 0.675067 0.703218H1.02491C1.2045 0.703218 1.35009 0.545791 1.35009 0.351609C1.35009 0.157427 1.2045 0 1.02491 0H0.675067C0.302848 0 0 0.327419 0 0.729941V5.27001C0 5.67253 0.302805 6 0.675067 6H15.0809C15.3547 6 15.6121 5.88472 15.8057 5.67539L17.8026 3.51614C18.0658 3.23157 18.0658 2.76848 17.8026 2.48386Z" transform="translate(0 6)" fill="#B20933"/>
<path d="M22.7955 2.48383L20.7264 0.324608C20.5259 0.115282 20.2592 0 19.9755 0H2.51203C2.32597 0 2.17512 0.157428 2.17512 0.351612C2.17512 0.545796 2.32597 0.703224 2.51203 0.703224H19.9756C20.0792 0.703224 20.1767 0.74537 20.25 0.821881L22.319 2.98111C22.3209 2.98308 22.3265 2.98894 22.3265 3C22.3265 3.01106 22.3209 3.01697 22.319 3.01889L20.25 5.17817C20.1767 5.25468 20.0792 5.29678 19.9756 5.29678H0.699434C0.685329 5.29678 0.673829 5.28477 0.673829 5.27005V0.729946C0.673829 0.715226 0.685329 0.703224 0.699434 0.703224H1.062C1.24807 0.703224 1.39891 0.545796 1.39891 0.351612C1.39891 0.157428 1.24807 0 1.062 0H0.699434C0.31378 0 0 0.327421 0 0.729946V5.27005C0 5.67253 0.31378 6 0.699434 6H19.9756C20.2592 6 20.5259 5.88472 20.7265 5.67539L22.7955 3.51612C23.0682 3.23155 23.0682 2.76845 22.7955 2.48383Z" transform="translate(0 13)" fill="#B20933"/>
<path fill-rule="evenodd" clip-rule="evenodd" d="M2.60107 0.196289L3.95557 2.48633C4.05927 2.66162 3.97522 2.875 3.76794 2.9624C3.7077 2.98779 3.64368 3 3.58063 3C3.42664 3 3.2785 2.92822 3.20496 2.80371L2.86945 2.23633H1.13055L0.795044 2.80371C0.691406 2.979 0.43927 3.05029 0.232056 2.9624C0.0247803 2.875 -0.0592651 2.66162 0.0444336 2.48633L1.39893 0.196289C1.46997 0.0756836 1.6153 0 1.77423 0H2.22577C2.3847 0 2.53003 0.0756836 2.60107 0.196289ZM2 0.766602L1.55017 1.52734H2.44983L2 0.766602Z" transform="translate(8 1)" fill="#B20933"/>
<path fill-rule="evenodd" clip-rule="evenodd" d="M2.54883 1.27832C2.59326 1.16992 2.61829 1.05176 2.61829 0.927246C2.61829 0.416016 2.20221 0 1.69086 0H0.354797C0.158875 0 0 0.158691 0 0.35498V1.5V2.64502C0 2.84131 0.158875 3 0.354797 3H2.07263C2.58398 3 3 2.58398 3 2.07275C3 1.73535 2.8186 1.44092 2.54883 1.27832ZM0.709534 0.709473H1.69086C1.81097 0.709473 1.90869 0.807129 1.90869 0.927246C1.90869 1.04736 1.81097 1.14502 1.69086 1.14502H0.709534V0.709473ZM0.709534 2.29053H2.07257C2.19269 2.29053 2.29047 2.19287 2.29041 2.07275C2.29041 1.95264 2.19269 1.85498 2.07257 1.85498H0.709534V2.29053Z" transform="translate(13 8)" fill="#B20933"/>
<path d="M2.88589 1.99991C2.74433 1.86883 2.52616 1.88046 2.39859 2.02602C2.24916 2.1965 2.04733 2.29044 1.83018 2.29044H1.45891C1.03501 2.29044 0.690142 1.93586 0.690142 1.5C0.690142 1.06414 1.03501 0.709555 1.45891 0.709555H1.83018C2.04733 0.709555 2.24916 0.803453 2.39859 0.973983C2.52612 1.11954 2.74433 1.13117 2.88589 1.00009C3.0275 0.868969 3.03886 0.644607 2.91128 0.499054C2.63336 0.181883 2.23936 0 1.83013 0H1.45886C0.654441 0 0 0.672895 0 1.5C0 2.32711 0.654441 3 1.45886 3H1.83013C2.23931 3 2.63336 2.81812 2.91128 2.50095C3.03881 2.35539 3.02745 2.13103 2.88589 1.99991Z" transform="translate(17 15)" fill="#B20933"/>
</svg>
