<svg width="32" height="29" viewBox="0 0 32 29" fill="none" xmlns="http://www.w3.org/2000/svg">
<path fill-rule="evenodd" clip-rule="evenodd" d="M0 2.5C0 1.12146 1.12149 0 2.49994 0C3.87851 0 5 1.12146 5 2.5C5 3.87854 3.87851 5 2.49994 5C1.12149 5 0 3.87854 0 2.5ZM1.58075 2.50012C1.58075 3.00696 1.99307 3.41931 2.49994 3.41931C3.00681 3.41931 3.41925 3.00696 3.41925 2.50012C3.41925 1.99329 3.00681 1.58081 2.49994 1.58081C1.99307 1.58081 1.58075 1.99329 1.58075 2.50012Z" transform="translate(9 13)" fill="url(#paint0_linear)"/>
<path fill-rule="evenodd" clip-rule="evenodd" d="M15.0907 23.9886H31.2181C31.6499 23.9886 31.9999 24.3433 32 24.7808V28.2078C32 28.6454 31.6501 29 31.2182 29H0.781799C0.349945 29 0 28.6454 0 28.2078V24.7808C0 24.3431 0.349945 23.9885 0.781799 23.9885H2.03012L6.79733 15.937C6.77579 15.7466 6.76361 15.5531 6.76361 15.3567C6.76361 15.1366 6.77911 14.9203 6.80606 14.7074L2.20886 6.25671C1.67209 5.26965 1.54654 4.12988 1.85556 3.04736C2.16458 1.96472 2.87115 1.06897 3.84506 0.52478C4.48151 0.169312 5.17062 0.00146484 5.85049 0.00170898L5.85446 0H17.6909C18.1227 0 18.4727 0.354614 18.4727 0.792236V1.71338H26.1453C27.5088 1.71338 28.618 2.8374 28.618 4.21912C28.618 5.32397 27.9085 6.26331 26.9271 6.5957V8.56714H29.5272C29.7982 8.56714 30.0497 8.70935 30.1922 8.94287C30.3345 9.17651 30.3475 9.46814 30.2263 9.71375L28.5355 13.1406C28.3424 13.5319 27.873 13.6908 27.4866 13.4949C27.1006 13.2992 26.944 12.8232 27.1371 12.432L28.2623 10.1515H24.0285L25.1536 12.432C25.3467 12.8234 25.1902 13.2992 24.8041 13.4949C24.6917 13.5516 24.5725 13.5787 24.455 13.5787C24.1683 13.5787 23.8923 13.4182 23.7552 13.1406L22.0643 9.71375C21.943 9.46814 21.956 9.17651 22.0984 8.94287C22.2409 8.70935 22.4925 8.56714 22.7635 8.56714H25.3635V6.72461H18.4726V7.646C18.4726 8.08362 18.1226 8.43823 17.6908 8.43823H12.9043L14.2786 10.9646C15.7735 11.8439 16.7816 13.4828 16.7816 15.3567C16.7816 16.8668 16.1269 18.2242 15.0907 19.1548V23.9886ZM8.32709 15.3568C8.32709 17.282 9.87277 18.8483 11.7726 18.8483C13.6725 18.8483 15.2182 17.282 15.2182 15.3568C15.2182 13.4315 13.6725 11.8652 11.7726 11.8652C9.87277 11.8652 8.32709 13.4315 8.32709 15.3568ZM26.1454 5.14038C25.6441 5.14038 25.2363 4.72717 25.2363 4.21912C25.2363 3.71106 25.6441 3.29773 26.1454 3.29773C26.6467 3.29773 27.0547 3.71106 27.0547 4.21912C27.0547 4.72717 26.6466 5.14038 26.1454 5.14038ZM23.6728 4.21924C23.6728 3.89392 23.7349 3.58325 23.8467 3.29785H18.4727V5.1405H23.8467C23.735 4.8551 23.6728 4.54443 23.6728 4.21924ZM16.9092 6.85388H12.0425L9.5014 2.18286C9.38483 1.96863 9.25153 1.76941 9.10565 1.58447H16.9092V6.85388ZM4.59991 1.91248C3.34436 2.61377 2.88602 4.21948 3.57819 5.4917L7.50275 12.7062C8.38474 11.2526 9.96866 10.2808 11.7726 10.2808C11.8925 10.2808 12.0112 10.2867 12.129 10.295L8.13208 2.94788C7.65887 2.07776 6.76804 1.58545 5.85071 1.58545C5.42651 1.58545 4.99683 1.69067 4.59991 1.91248ZM7.44928 17.9155C8.31964 19.4197 9.93118 20.4327 11.7726 20.4327C12.3898 20.4327 12.9809 20.3182 13.5272 20.1105V23.9886H3.85345L7.44928 17.9155ZM1.56348 27.4155H30.4364L30.4363 25.573H1.56348V27.4155Z" fill="url(#paint1_linear)"/>
<defs>
<linearGradient id="paint0_linear" x2="1" gradientUnits="userSpaceOnUse" gradientTransform="translate(2.5) scale(5) rotate(90)">
<stop stop-color="#F5515F"/>
<stop offset="1" stop-color="#9F041B"/>
</linearGradient>
<linearGradient id="paint1_linear" x2="1" gradientUnits="userSpaceOnUse" gradientTransform="translate(16) scale(32 29) rotate(90)">
<stop stop-color="#F5515F"/>
<stop offset="1" stop-color="#9F041B"/>
</linearGradient>
</defs>
</svg>
