<svg width="38" height="36" viewBox="0 0 38 36" fill="none" xmlns="http://www.w3.org/2000/svg">
<path d="M0.922519 15.38C0.922519 14.15 0.922519 12.97 0.922519 11.8C0.922519 11.61 1.13252 11.4 1.28252 11.23C1.93252 10.52 2.59252 9.83 3.28252 9.07C2.93252 7.96 2.50252 6.76 2.02252 5.56C1.94845 5.40879 1.8343 5.28081 1.69252 5.19C0.501543 4.2731 -0.130235 2.80526 0.0225193 1.31C0.0615571 1.10066 0.139577 0.900526 0.252519 0.72C0.352519 0.5 0.452519 0.29 0.592519 0H15.8125C15.9619 0.244799 16.0891 0.502496 16.1925 0.77C16.3369 1.14294 16.4081 1.54015 16.4025 1.94C16.3981 3.25075 15.7518 4.47616 14.6725 5.22C14.5497 5.30285 14.4554 5.42158 14.4025 5.56C13.9525 6.76 13.5225 7.96 13.1325 9.04C13.8325 9.8 14.4525 10.51 15.1325 11.18C15.4175 11.4327 15.5751 11.7993 15.5625 12.18C15.5625 13.18 15.5625 14.27 15.5625 15.37L0.922519 15.38Z" transform="translate(10.9775 14.44)" fill="url(#paint0_linear)"/>
<path d="M14.1704 1.66352C17.0124 3.15488 18.8451 6.04685 18.9804 9.25352C19.1904 9.31352 19.4004 9.36352 19.6004 9.42352C20.1588 9.58099 20.5395 10.0968 20.5253 10.6768C20.5112 11.2568 20.1058 11.7535 19.5404 11.8835C19.3115 11.9402 19.0762 11.9671 18.8404 11.9635H1.6904C1.43415 11.9683 1.17845 11.938 0.930402 11.8735C0.370621 11.7255 -0.0142116 11.2124 0.000402383 10.6335C0.00553367 10.0829 0.364949 9.59827 0.890402 9.43352C1.0904 9.36352 1.3004 9.32352 1.5304 9.25352C1.66867 6.02892 3.52305 3.12524 6.3904 1.64352L6.7504 3.56352C6.8804 4.25352 6.9904 4.95352 7.1304 5.64352C7.1453 5.81481 7.22956 5.97257 7.36363 6.0802C7.4977 6.18784 7.66994 6.236 7.8404 6.21352C8.01788 6.1676 8.16826 6.04992 8.25551 5.8887C8.34276 5.72747 8.35902 5.53722 8.3004 5.36352C8.07374 4.10352 7.84707 2.84019 7.6204 1.57352C7.49501 1.21592 7.55384 0.819496 7.77768 0.513718C8.00152 0.20794 8.36162 0.0320621 8.7404 0.0435233C9.73956 -0.0145078 10.7412 -0.0145078 11.7404 0.0435233C12.1224 0.0344165 12.4845 0.214057 12.7083 0.523803C12.9321 0.83355 12.989 1.23366 12.8604 1.59352C12.6271 2.85352 12.4004 4.11686 12.1804 5.38352C12.1346 5.55063 12.1574 5.72911 12.2438 5.87932C12.3302 6.02953 12.4729 6.13904 12.6404 6.18352C12.8097 6.21207 12.9833 6.16909 13.1198 6.06484C13.2563 5.96059 13.3434 5.80441 13.3604 5.63352C13.5904 4.45352 13.7904 3.28352 14.0104 2.10352C14.0562 1.95424 14.1097 1.80739 14.1704 1.66352Z" transform="translate(8.93958 0.956482)" fill="url(#paint1_linear)"/>
<path d="M5.32222 7.93H0.0222222C0.0222222 6.93 -0.0277778 5.93 0.0222222 4.93C0.0957864 4.23783 0.459144 3.60922 1.02222 3.2C1.51082 2.78436 2.04018 2.41917 2.60222 2.11C4.03222 1.39 5.49222 0.74 7.07222 0C7.194 0.731634 7.194 1.47837 7.07222 2.21C7.07222 2.35 6.82222 2.49 6.66222 2.59C5.7248 3.15915 5.17264 4.19445 5.22222 5.29C5.32222 6.17 5.32222 7.02 5.32222 7.93Z" transform="translate(0.977783 27.73)" fill="url(#paint2_linear)"/>
<path d="M7.22443 7.73H1.92443C1.92443 7.49 1.92443 7.28 1.92443 7.08C1.92443 6.37 1.92443 5.67 1.92443 4.96C1.9554 3.97362 1.45547 3.04627 0.614425 2.53C0.180865 2.32283 -0.0636745 1.85413 0.0144252 1.38C0.0144252 0.94 0.0144252 0.5 0.0144252 0C0.169918 0.00580003 0.324245 0.0292846 0.474425 0.07C1.85443 0.69 3.24443 1.32 4.61443 1.96C4.91566 2.12124 5.20625 2.30161 5.48443 2.5C6.78006 3.25756 7.48778 4.72438 7.27443 6.21C7.19443 6.69 7.22443 7.18 7.22443 7.73Z" transform="translate(30.2256 27.93)" fill="url(#paint3_linear)"/>
<path d="M1.6 3.2003C0.716344 3.2003 0 2.48396 0 1.6003C0 0.716644 0.716344 0.000299855 1.6 0.000299855C2.48163 -0.0165513 3.21278 0.678931 3.24 1.5603C3.24 2.46605 2.50575 3.2003 1.6 3.2003Z" transform="translate(8.15997 31.2397)" fill="url(#paint4_linear)"/>
<path d="M1.64 0.000527215C2.06766 -0.0105864 2.48111 0.154413 2.78361 0.456914C3.08611 0.759415 3.25111 1.17287 3.24 1.60053C3.2458 2.03364 3.07353 2.45013 2.76349 2.75261C2.45345 3.05508 2.03283 3.21701 1.6 3.20053C0.721441 3.17923 0.0158179 2.4692 0 1.59053C0.0164294 0.699724 0.749115 -0.0106237 1.64 0.000527215Z" transform="translate(26.76 31.2395)" fill="url(#paint5_linear)"/>
<defs>
<linearGradient id="paint0_linear" x2="1" gradientUnits="userSpaceOnUse" gradientTransform="translate(8.20141) scale(16.4028 15.38) rotate(90)">
<stop stop-color="#F5515F"/>
<stop offset="1" stop-color="#9F041B"/>
</linearGradient>
<linearGradient id="paint1_linear" x2="1" gradientUnits="userSpaceOnUse" gradientTransform="translate(10.2628) scale(20.5257 11.964) rotate(90)">
<stop stop-color="#F5515F"/>
<stop offset="1" stop-color="#9F041B"/>
</linearGradient>
<linearGradient id="paint2_linear" x2="1" gradientUnits="userSpaceOnUse" gradientTransform="translate(3.58178) scale(7.16356 7.93) rotate(90)">
<stop stop-color="#F5515F"/>
<stop offset="1" stop-color="#9F041B"/>
</linearGradient>
<linearGradient id="paint3_linear" x2="1" gradientUnits="userSpaceOnUse" gradientTransform="translate(3.65601) scale(7.31203 7.73) rotate(90)">
<stop stop-color="#F5515F"/>
<stop offset="1" stop-color="#9F041B"/>
</linearGradient>
<linearGradient id="paint4_linear" x2="1" gradientUnits="userSpaceOnUse" gradientTransform="translate(1.62) scale(3.24 3.2003) rotate(90)">
<stop stop-color="#F5515F"/>
<stop offset="1" stop-color="#9F041B"/>
</linearGradient>
<linearGradient id="paint5_linear" x2="1" gradientUnits="userSpaceOnUse" gradientTransform="translate(1.62026) scale(3.24053 3.20167) rotate(90)">
<stop stop-color="#F5515F"/>
<stop offset="1" stop-color="#9F041B"/>
</linearGradient>
</defs>
</svg>
