<svg width="22" height="16" viewBox="0 0 22 16" fill="none" xmlns="http://www.w3.org/2000/svg">
<path d="M12.9822 13.9668C13.1297 12.5513 12.3477 11.2039 11.0535 10.6434C10.0353 10.2678 9.04308 9.82364 8.08358 9.31402C7.8096 9.1257 7.68905 8.5718 7.73289 7.86281C8.57673 7.55263 9.13564 5.44782 9.13564 5.44782C9.47122 5.05682 9.69812 4.58279 9.79318 4.07415C9.78799 3.71616 9.55939 3.40064 9.22331 3.28761C9.2964 2.52405 9.1519 1.75528 8.80687 1.07202C8.23841 0.392169 7.40253 0 6.52192 0C5.64131 0 4.80542 0.392169 4.23697 1.07202C3.89193 1.75528 3.74744 2.52405 3.82052 3.28761C3.48445 3.40064 3.25585 3.71616 3.25066 4.07415C3.33617 4.57947 3.55159 5.05319 3.87532 5.44782C3.87532 5.44782 4.43423 7.55263 5.26711 7.86281C5.26711 8.5718 5.20136 9.1257 4.91642 9.31402C3.95779 9.83498 2.96559 10.2902 1.94654 10.6766C0.652329 11.2371 -0.12967 12.5845 0.0177515 14" transform="translate(1 1)" stroke="#B20933"/>
<path d="M8.98704 12C9.10659 10.7978 8.38993 9.65994 7.21182 9.18132C6.27147 8.8499 5.3559 8.45927 4.47133 8.01209C4.21614 7.85549 4.11629 7.37527 4.14957 6.76978C4.92623 6.49835 5.43661 4.68187 5.43661 4.68187C5.74558 4.34929 5.95604 3.94603 6.04684 3.51264C6.04335 3.20207 5.82871 2.92857 5.51427 2.83407C5.58472 2.17192 5.44984 1.50475 5.12594 0.913187C4.60105 0.333771 3.83257 0 3.02342 0C2.21427 0 1.44579 0.333771 0.920894 0.913187C0.596998 1.50475 0.462122 2.17192 0.532565 2.83407C0.218132 2.92857 0.00348234 3.20207 0 3.51264C0.0857364 3.94867 0.292428 4.35563 0.599136 4.69231C0.599136 4.69231 1.10951 6.49835 1.88617 6.78022C1.88617 7.38571 1.61989 7.65714 1.33141 8.13736" transform="translate(12 2)" stroke="#B20933"/>
</svg>
