<svg width="17" height="22" viewBox="0 0 17 22" fill="none" xmlns="http://www.w3.org/2000/svg">
<path d="M0 0H3" transform="translate(7 17)" stroke="#B20933"/>
<path d="M0 0H6" transform="translate(7 13)" stroke="#B20933"/>
<path d="M0 0H6" transform="translate(7 8)" stroke="#B20933"/>
<path d="M11.4991 2.295V1.14143C11.4991 0.51 10.7545 0 9.83273 0H1.67818C0.751348 0 0 0.771989 0 1.72429V13.8671C0 14.8143 0.496364 15.5914 1.11091 15.5914H2.22182" transform="translate(0.590942 0.606934)" stroke="#B20933"/>
<path fill-rule="evenodd" clip-rule="evenodd" d="M11.5111 1.72429C11.5111 0.771989 10.7597 0 9.83291 0H1.63109C0.722766 0.0262998 -0.000181146 0.790639 0.00017944 1.72429V13.8671C-0.0131109 14.8102 0.713509 15.5892 1.63109 15.6157H6.63018C7.53052 15.6295 8.2763 14.901 8.30836 13.9764C8.30834 13.0691 9.02076 12.3317 9.90382 12.325C10.8065 12.2985 11.5191 11.5284 11.4993 10.6007L11.5111 1.72429Z" transform="translate(4.73254 4.89844)" stroke="#B20933"/>
</svg>
