<svg width="14" height="21" viewBox="0 0 14 21" fill="none" xmlns="http://www.w3.org/2000/svg">
<path d="M1.99967 5.89525V1.13337C2.00661 0.835451 1.9048 0.547055 1.71734 0.333652C1.52988 0.120249 1.27268 -5.85727e-05 1.00412 4.11085e-05V4.11085e-05C0.738606 -0.00249904 0.483176 0.112772 0.294615 0.32023C0.106055 0.527688 -9.86671e-06 0.81014 0 1.1048V8" transform="translate(3 2)" stroke="#B20933"/>
<path d="M2 7.84978V1.1704C2 0.524008 1.55228 0 1 0V0C0.447715 0 0 0.524008 0 1.1704V9" transform="translate(5 1)" stroke="#B20933"/>
<path d="M3 8V1.30329C3 0.583524 2.331 3.86122e-05 1.50575 3.86122e-05V3.86122e-05C1.10746 -0.0026336 0.72443 0.133492 0.441713 0.37819C0.158995 0.622887 -1.17842e-05 0.955903 0 1.30329V7.73935" transform="translate(7 2)" stroke="#B20933"/>
<path d="M2.05832 5.30653V1.00503C2.05832 0.449965 1.59755 0 1.02916 0V0C0.46077 0 0 0.449965 0 1.00503V10.1407C4.93781e-08 13.3767 2.68629 16 6 16C9.31371 16 12 13.3767 12 10.1407V2.92462C12 2.62489 11.7512 2.38191 11.4443 2.38191V2.38191C10.9433 2.36276 10.456 2.54381 10.0948 2.88329C9.73358 3.22276 9.52963 3.69134 9.53002 4.1809V8.201C7.93293 8.46964 6.52498 9.3814 5.65009 10.7136" transform="translate(1 4)" stroke="#B20933"/>
<path d="M0 1C1.7193 0.350462 3.54155 0.0118123 5.38075 3.7869e-05C5.92153 -0.00114876 6.462 0.0255528 7 0.0800348" transform="translate(2 9)" stroke="#B20933"/>
</svg>
